<?xml version="1.0" encoding="UTF-8" standalone="no"?>
<!DOCTYPE svg PUBLIC "-//W3C//DTD SVG 1.1//EN"
 "http://www.w3.org/Graphics/SVG/1.1/DTD/svg11.dtd">
<!-- Generated by graphviz version 2.43.0 (0)
 -->
<!-- Title: %3 Pages: 1 -->
<svg width="468pt" height="1193pt"
 viewBox="0.00 0.00 468.00 1193.44" xmlns="http://www.w3.org/2000/svg" xmlns:xlink="http://www.w3.org/1999/xlink">
<g id="graph0" class="graph" transform="scale(1 1) rotate(0) translate(4 1189.44)">
<title>%3</title>
<polygon fill="white" stroke="transparent" points="-4,4 -4,-1189.44 464,-1189.44 464,4 -4,4"/>
<!-- 0 -->
<g id="node1" class="node">
<title>0</title>
<polygon fill="aqua" stroke="black" points="54,-1154.72 0,-1154.72 0,-1118.72 54,-1118.72 54,-1154.72"/>
<text text-anchor="middle" x="27" y="-1133.02" font-family="Times,serif" font-size="14.00">0</text>
</g>
<!-- H -->
<g id="node2" class="node">
<title>H</title>
<polygon fill="aqua" stroke="black" points="174.44,-1148.27 135.14,-1148.27 123,-1185.65 110.86,-1148.27 71.56,-1148.27 103.35,-1125.17 91.21,-1087.79 123,-1110.89 154.79,-1087.79 142.65,-1125.17 174.44,-1148.27"/>
<text text-anchor="middle" x="123" y="-1133.02" font-family="Times,serif" font-size="14.00">H</text>
</g>
<!-- G -->
<g id="node3" class="node">
<title>G</title>
<polygon fill="aqua" stroke="black" points="233.44,-992.84 194.14,-992.84 182,-1030.22 169.86,-992.84 130.56,-992.84 162.35,-969.74 150.21,-932.36 182,-955.46 213.79,-932.36 201.65,-969.74 233.44,-992.84"/>
<text text-anchor="middle" x="182" y="-977.59" font-family="Times,serif" font-size="14.00">G</text>
</g>
<!-- H&#45;&#45;G -->
<g id="edge1" class="edge">
<title>H&#45;&#45;G</title>
<path fill="none" stroke="red" d="M136.24,-1101.29C147.66,-1071.6 163.8,-1029.63 173.54,-1004.29"/>
<text text-anchor="middle" x="169" y="-1054.01" font-family="Times,serif" font-size="20.00">14</text>
</g>
<!-- F -->
<g id="node4" class="node">
<title>F</title>
<polygon fill="aqua" stroke="black" points="293.44,-837.41 254.14,-837.41 242,-874.79 229.86,-837.41 190.56,-837.41 222.35,-814.31 210.21,-776.93 242,-800.03 273.79,-776.93 261.65,-814.31 293.44,-837.41"/>
<text text-anchor="middle" x="242" y="-822.16" font-family="Times,serif" font-size="14.00">F</text>
</g>
<!-- G&#45;&#45;F -->
<g id="edge2" class="edge">
<title>G&#45;&#45;F</title>
<path fill="none" stroke="red" d="M195.61,-945.48C207.23,-915.77 223.58,-873.97 233.44,-848.74"/>
<text text-anchor="middle" x="221.5" y="-898.58" font-family="Times,serif" font-size="20.00">6</text>
</g>
<!-- E -->
<g id="node5" class="node">
<title>E</title>
<polygon fill="aqua" stroke="black" points="293.44,-681.98 254.14,-681.98 242,-719.36 229.86,-681.98 190.56,-681.98 222.35,-658.88 210.21,-621.5 242,-644.6 273.79,-621.5 261.65,-658.88 293.44,-681.98"/>
<text text-anchor="middle" x="242" y="-666.73" font-family="Times,serif" font-size="14.00">E</text>
</g>
<!-- F&#45;&#45;E -->
<g id="edge3" class="edge">
<title>F&#45;&#45;E</title>
<path fill="none" stroke="red" d="M242,-799.87C242,-778.13 242,-746.02 242,-719.35"/>
<text text-anchor="middle" x="248.5" y="-743.15" font-family="Times,serif" font-size="20.00">1</text>
</g>
<!-- C -->
<g id="node6" class="node">
<title>C</title>
<polygon fill="aqua" stroke="black" points="301.44,-526.55 262.14,-526.55 250,-563.93 237.86,-526.55 198.56,-526.55 230.35,-503.45 218.21,-466.07 250,-489.17 281.79,-466.07 269.65,-503.45 301.44,-526.55"/>
<text text-anchor="middle" x="250" y="-511.3" font-family="Times,serif" font-size="14.00">C</text>
</g>
<!-- E&#45;&#45;C -->
<g id="edge4" class="edge">
<title>E&#45;&#45;C</title>
<path fill="none" stroke="red" d="M243.36,-643.41C244.59,-619.81 246.42,-584.63 247.85,-557.21"/>
<text text-anchor="middle" x="252.5" y="-587.72" font-family="Times,serif" font-size="20.00">3</text>
</g>
<!-- A -->
<g id="node7" class="node">
<title>A</title>
<polygon fill="aqua" stroke="black" points="335.44,-371.12 296.14,-371.12 284,-408.5 271.86,-371.12 232.56,-371.12 264.35,-348.02 252.21,-310.64 284,-333.75 315.79,-310.64 303.65,-348.02 335.44,-371.12"/>
<text text-anchor="middle" x="284" y="-355.87" font-family="Times,serif" font-size="14.00">A</text>
</g>
<!-- C&#45;&#45;A -->
<g id="edge5" class="edge">
<title>C&#45;&#45;A</title>
<path fill="none" stroke="red" d="M256.56,-484.42C262.65,-456.9 271.68,-416.18 277.69,-389.03"/>
<text text-anchor="middle" x="275.5" y="-432.29" font-family="Times,serif" font-size="20.00">4</text>
</g>
<!-- B -->
<g id="node8" class="node">
<title>B</title>
<polygon fill="aqua" stroke="black" points="282.44,-215.7 243.14,-215.7 231,-253.07 218.86,-215.7 179.56,-215.7 211.35,-192.59 199.21,-155.21 231,-178.32 262.79,-155.21 250.65,-192.59 282.44,-215.7"/>
<text text-anchor="middle" x="231" y="-200.44" font-family="Times,serif" font-size="14.00">B</text>
</g>
<!-- A&#45;&#45;B -->
<g id="edge6" class="edge">
<title>A&#45;&#45;B</title>
<path fill="none" stroke="red" d="M272.5,-325.28C262.39,-296.02 247.94,-254.19 239.03,-228.4"/>
<text text-anchor="middle" x="266.5" y="-276.86" font-family="Times,serif" font-size="20.00">1</text>
</g>
<!-- B&#45;&#45;H -->
<g id="edge7" class="edge">
<title>B&#45;&#45;H</title>
<path fill="none" stroke="red" d="M203.75,-215.66C156.89,-235.74 66,-284.25 66,-358.57 66,-982.29 66,-982.29 66,-982.29 66,-1021.22 82.32,-1062.43 97.5,-1092.32"/>
<text text-anchor="middle" x="72.5" y="-665.43" font-family="Times,serif" font-size="20.00">2</text>
</g>
<!-- B&#45;&#45;G -->
<g id="edge8" class="edge">
<title>B&#45;&#45;G</title>
<path fill="none" stroke="red" d="M214.09,-215.7C188.93,-232.43 142.32,-267.63 121,-310.86 96.19,-361.17 107,-380.2 107,-436.29 107,-826.86 107,-826.86 107,-826.86 107,-872.08 133.61,-917.87 155.14,-947.51"/>
<text text-anchor="middle" x="113.5" y="-587.72" font-family="Times,serif" font-size="20.00">4</text>
</g>
<!-- B&#45;&#45;C -->
<g id="edge10" class="edge">
<title>B&#45;&#45;C</title>
<path fill="none" stroke="red" d="M223.87,-231.3C214.31,-270.16 199.75,-345.32 211,-408.29 215.16,-431.59 224.1,-456.48 232.37,-476.25"/>
<text text-anchor="middle" x="217.5" y="-354.57" font-family="Times,serif" font-size="20.00">2</text>
</g>
<!-- D -->
<g id="node9" class="node">
<title>D</title>
<polygon fill="aqua" stroke="black" points="414.44,-60.27 375.14,-60.27 363,-97.65 350.86,-60.27 311.56,-60.27 343.35,-37.16 331.21,0.22 363,-22.89 394.79,0.22 382.65,-37.16 414.44,-60.27"/>
<text text-anchor="middle" x="363" y="-45.01" font-family="Times,serif" font-size="14.00">D</text>
</g>
<!-- B&#45;&#45;D -->
<g id="edge9" class="edge">
<title>B&#45;&#45;D</title>
<path fill="none" stroke="red" d="M257.08,-172.83C285.78,-139.47 330.62,-87.36 351.53,-63.04"/>
<text text-anchor="middle" x="310.5" y="-121.43" font-family="Times,serif" font-size="20.00">9</text>
</g>
<!-- D&#45;&#45;G -->
<g id="edge12" class="edge">
<title>D&#45;&#45;G</title>
<path fill="none" stroke="red" d="M375.04,-61.61C398.26,-85.9 447,-143.93 447,-203.14 447,-826.86 447,-826.86 447,-826.86 447,-934.52 281.19,-967.86 211.88,-977.1"/>
<text text-anchor="middle" x="453.5" y="-510" font-family="Times,serif" font-size="20.00">1</text>
</g>
<!-- D&#45;&#45;F -->
<g id="edge14" class="edge">
<title>D&#45;&#45;F</title>
<path fill="none" stroke="red" d="M371.81,-71.15C383.04,-100.44 401,-154.85 401,-203.14 401,-671.43 401,-671.43 401,-671.43 401,-746.62 307.8,-796.61 264.11,-815.92"/>
<text text-anchor="middle" x="407.5" y="-432.29" font-family="Times,serif" font-size="20.00">3</text>
</g>
<!-- D&#45;&#45;E -->
<g id="edge13" class="edge">
<title>D&#45;&#45;E</title>
<path fill="none" stroke="red" d="M317.89,-60.29C271.77,-73.78 202.56,-102.03 171,-155.43 78.58,-311.82 143.46,-388.12 190,-563.72 195.63,-584.97 205.7,-607.02 215.49,-625.44"/>
<text text-anchor="middle" x="147.5" y="-354.57" font-family="Times,serif" font-size="20.00">1</text>
</g>
<!-- D&#45;&#45;C -->
<g id="edge11" class="edge">
<title>D&#45;&#45;C</title>
<path fill="none" stroke="red" d="M364.26,-93.74C366.05,-176.64 366.89,-352.57 344,-408.29 328.69,-445.54 294.42,-478.45 271.76,-497.29"/>
<text text-anchor="middle" x="368.5" y="-276.86" font-family="Times,serif" font-size="20.00">1</text>
</g>
</g>
</svg>
