<?xml version="1.0" encoding="UTF-8" standalone="no"?>
<!DOCTYPE svg PUBLIC "-//W3C//DTD SVG 1.1//EN"
 "http://www.w3.org/Graphics/SVG/1.1/DTD/svg11.dtd">
<!-- Generated by graphviz version 2.43.0 (0)
 -->
<!-- Title: %3 Pages: 1 -->
<svg width="419pt" height="653pt"
 viewBox="0.00 0.00 419.00 653.00" xmlns="http://www.w3.org/2000/svg" xmlns:xlink="http://www.w3.org/1999/xlink">
<g id="graph0" class="graph" transform="scale(1 1) rotate(0) translate(4 649)">
<title>%3</title>
<polygon fill="white" stroke="transparent" points="-4,4 -4,-649 415,-649 415,4 -4,4"/>
<!-- 0 -->
<g id="node1" class="node">
<title>0</title>
<polygon fill="none" stroke="black" points="54,-645 0,-645 0,-609 54,-609 54,-645"/>
<text text-anchor="middle" x="27" y="-623.3" font-family="Times,serif" font-size="14.00">0</text>
</g>
<!-- H -->
<g id="node2" class="node">
<title>H</title>
<ellipse fill="none" stroke="black" cx="99" cy="-627" rx="27" ry="18"/>
<text text-anchor="middle" x="99" y="-623.3" font-family="Times,serif" font-size="14.00">H</text>
</g>
<!-- G -->
<g id="node3" class="node">
<title>G</title>
<ellipse fill="none" stroke="black" cx="197" cy="-540" rx="27" ry="18"/>
<text text-anchor="middle" x="197" y="-536.3" font-family="Times,serif" font-size="14.00">G</text>
</g>
<!-- H&#45;&#45;G -->
<g id="edge1" class="edge">
<title>H&#45;&#45;G</title>
<path fill="none" stroke="black" d="M114.75,-612.34C132.93,-596.58 162.67,-570.78 180.97,-554.91"/>
<text text-anchor="middle" x="162.5" y="-579.8" font-family="Times,serif" font-size="14.00">14</text>
</g>
<!-- F -->
<g id="node4" class="node">
<title>F</title>
<ellipse fill="none" stroke="black" cx="232" cy="-453" rx="27" ry="18"/>
<text text-anchor="middle" x="232" y="-449.3" font-family="Times,serif" font-size="14.00">F</text>
</g>
<!-- G&#45;&#45;F -->
<g id="edge2" class="edge">
<title>G&#45;&#45;F</title>
<path fill="none" stroke="black" d="M203.91,-522.21C210.09,-507.21 219.08,-485.37 225.22,-470.47"/>
<text text-anchor="middle" x="221" y="-492.8" font-family="Times,serif" font-size="14.00">6</text>
</g>
<!-- E -->
<g id="node5" class="node">
<title>E</title>
<ellipse fill="none" stroke="black" cx="232" cy="-366" rx="27" ry="18"/>
<text text-anchor="middle" x="232" y="-362.3" font-family="Times,serif" font-size="14.00">E</text>
</g>
<!-- F&#45;&#45;E -->
<g id="edge3" class="edge">
<title>F&#45;&#45;E</title>
<path fill="none" stroke="black" d="M232,-434.8C232,-420.05 232,-398.92 232,-384.18"/>
<text text-anchor="middle" x="237" y="-405.8" font-family="Times,serif" font-size="14.00">1</text>
</g>
<!-- C -->
<g id="node6" class="node">
<title>C</title>
<ellipse fill="none" stroke="black" cx="256" cy="-279" rx="27" ry="18"/>
<text text-anchor="middle" x="256" y="-275.3" font-family="Times,serif" font-size="14.00">C</text>
</g>
<!-- E&#45;&#45;C -->
<g id="edge4" class="edge">
<title>E&#45;&#45;C</title>
<path fill="none" stroke="black" d="M236.74,-348.21C240.95,-333.31 247.06,-311.65 251.27,-296.76"/>
<text text-anchor="middle" x="250" y="-318.8" font-family="Times,serif" font-size="14.00">3</text>
</g>
<!-- A -->
<g id="node7" class="node">
<title>A</title>
<ellipse fill="none" stroke="black" cx="262" cy="-192" rx="27" ry="18"/>
<text text-anchor="middle" x="262" y="-188.3" font-family="Times,serif" font-size="14.00">A</text>
</g>
<!-- C&#45;&#45;A -->
<g id="edge5" class="edge">
<title>C&#45;&#45;A</title>
<path fill="none" stroke="black" d="M257.21,-260.8C258.26,-246.05 259.75,-224.92 260.79,-210.18"/>
<text text-anchor="middle" x="264" y="-231.8" font-family="Times,serif" font-size="14.00">4</text>
</g>
<!-- B -->
<g id="node8" class="node">
<title>B</title>
<ellipse fill="none" stroke="black" cx="212" cy="-105" rx="27" ry="18"/>
<text text-anchor="middle" x="212" y="-101.3" font-family="Times,serif" font-size="14.00">B</text>
</g>
<!-- A&#45;&#45;B -->
<g id="edge6" class="edge">
<title>A&#45;&#45;B</title>
<path fill="none" stroke="black" d="M252.6,-175.01C243.66,-159.82 230.29,-137.09 221.36,-121.92"/>
<text text-anchor="middle" x="244" y="-144.8" font-family="Times,serif" font-size="14.00">1</text>
</g>
<!-- B&#45;&#45;H -->
<g id="edge7" class="edge">
<title>B&#45;&#45;H</title>
<path fill="none" stroke="black" d="M185.97,-110.3C146.74,-118.42 77,-140.04 77,-191 77,-541 77,-541 77,-541 77,-565.39 85.59,-592.49 92.04,-609.39"/>
<text text-anchor="middle" x="82" y="-362.3" font-family="Times,serif" font-size="14.00">2</text>
</g>
<!-- B&#45;&#45;G -->
<g id="edge8" class="edge">
<title>B&#45;&#45;G</title>
<path fill="none" stroke="black" d="M193.3,-118.57C165.11,-139.19 115,-183.07 115,-234.5 115,-454 115,-454 115,-454 115,-489.06 151.59,-515.21 175.88,-528.71"/>
<text text-anchor="middle" x="120" y="-318.8" font-family="Times,serif" font-size="14.00">4</text>
</g>
<!-- B&#45;&#45;C -->
<g id="edge10" class="edge">
<title>B&#45;&#45;C</title>
<path fill="none" stroke="black" d="M210.16,-122.98C208.44,-143.91 207.31,-180.35 216,-210 221.78,-229.72 234.52,-249.67 244.08,-262.82"/>
<text text-anchor="middle" x="221" y="-188.3" font-family="Times,serif" font-size="14.00">2</text>
</g>
<!-- D -->
<g id="node9" class="node">
<title>D</title>
<ellipse fill="none" stroke="black" cx="317" cy="-18" rx="27" ry="18"/>
<text text-anchor="middle" x="317" y="-14.3" font-family="Times,serif" font-size="14.00">D</text>
</g>
<!-- B&#45;&#45;D -->
<g id="edge9" class="edge">
<title>B&#45;&#45;D</title>
<path fill="none" stroke="black" d="M228.87,-90.34C248.58,-74.39 280.98,-48.16 300.52,-32.34"/>
<text text-anchor="middle" x="275" y="-57.8" font-family="Times,serif" font-size="14.00">9</text>
</g>
<!-- D&#45;&#45;G -->
<g id="edge12" class="edge">
<title>D&#45;&#45;G</title>
<path fill="none" stroke="black" d="M338.63,-29.16C363.52,-42.52 401,-68.52 401,-104 401,-454 401,-454 401,-454 401,-529.78 279.58,-539.22 224.09,-539.58"/>
<text text-anchor="middle" x="406" y="-275.3" font-family="Times,serif" font-size="14.00">1</text>
</g>
<!-- D&#45;&#45;F -->
<g id="edge14" class="edge">
<title>D&#45;&#45;F</title>
<path fill="none" stroke="black" d="M328.61,-34.37C339.78,-50.73 355,-77.81 355,-104 355,-367 355,-367 355,-367 355,-413.98 293.51,-437.02 257.49,-446.49"/>
<text text-anchor="middle" x="360" y="-231.8" font-family="Times,serif" font-size="14.00">3</text>
</g>
<!-- D&#45;&#45;E -->
<g id="edge13" class="edge">
<title>D&#45;&#45;E</title>
<path fill="none" stroke="black" d="M290.9,-23.08C257.57,-29.83 201.22,-46.84 176,-87 121.28,-174.14 193.23,-304.29 221.5,-349.14"/>
<text text-anchor="middle" x="166" y="-188.3" font-family="Times,serif" font-size="14.00">1</text>
</g>
<!-- D&#45;&#45;C -->
<g id="edge11" class="edge">
<title>D&#45;&#45;C</title>
<path fill="none" stroke="black" d="M317.83,-36.14C318.95,-70.25 318.77,-148.6 298,-210 291.33,-229.72 278.06,-249.67 268.21,-262.82"/>
<text text-anchor="middle" x="318" y="-144.8" font-family="Times,serif" font-size="14.00">1</text>
</g>
</g>
</svg>
