<?xml version="1.0" encoding="UTF-8" standalone="no"?>
<!DOCTYPE svg PUBLIC "-//W3C//DTD SVG 1.1//EN"
 "http://www.w3.org/Graphics/SVG/1.1/DTD/svg11.dtd">
<!-- Generated by graphviz version 2.43.0 (0)
 -->
<!-- Title: %3 Pages: 1 -->
<svg width="638pt" height="552pt"
 viewBox="0.00 0.00 638.00 552.00" xmlns="http://www.w3.org/2000/svg" xmlns:xlink="http://www.w3.org/1999/xlink">
<g id="graph0" class="graph" transform="scale(1 1) rotate(0) translate(4 548)">
<title>%3</title>
<polygon fill="white" stroke="transparent" points="-4,4 -4,-548 634,-548 634,4 -4,4"/>
<!-- 0 -->
<g id="node1" class="node">
<title>0</title>
<polygon fill="none" stroke="black" points="369,-306 315,-306 315,-270 369,-270 369,-306"/>
<image xlink:href="icon_router.png" width="54px" height="36px" preserveAspectRatio="xMinYMin meet" x="315" y="-306"/>
<text text-anchor="middle" x="342" y="-284.3" font-family="Times,serif" font-size="14.00">0</text>
</g>
<!-- H -->
<g id="node2" class="node">
<title>H</title>
<image xlink:href="icon_router.png" width="54px" height="36px" preserveAspectRatio="xMinYMin meet" x="144" y="-540"/>
<text text-anchor="middle" x="171" y="-518.3" font-family="Times,serif" font-size="14.00">H</text>
</g>
<!-- G -->
<g id="node3" class="node">
<title>G</title>
<image xlink:href="icon_router.png" width="54px" height="36px" preserveAspectRatio="xMinYMin meet" x="0" y="-396"/>
<text text-anchor="middle" x="27" y="-374.3" font-family="Times,serif" font-size="14.00">G</text>
</g>
<!-- H&#45;&#45;G -->
<g id="edge1" class="edge">
<title>H&#45;&#45;G</title>
<path fill="none" stroke="red" d="M152.76,-503.76C125.06,-476.06 72.7,-423.7 45.09,-396.09"/>
<text text-anchor="middle" x="85.93" y="-455.93" font-family="Times,serif" font-size="20.00">14</text>
</g>
<!-- F -->
<g id="node4" class="node">
<title>F</title>
<image xlink:href="icon_router.png" width="54px" height="36px" preserveAspectRatio="xMinYMin meet" x="0" y="-108"/>
<text text-anchor="middle" x="27" y="-86.3" font-family="Times,serif" font-size="14.00">F</text>
</g>
<!-- G&#45;&#45;F -->
<g id="edge2" class="edge">
<title>G&#45;&#45;F</title>
<path fill="none" stroke="red" d="M27,-359.98C27,-308.26 27,-159.72 27,-108.01"/>
<text text-anchor="middle" x="20.5" y="-240" font-family="Times,serif" font-size="20.00">6</text>
</g>
<!-- E -->
<g id="node5" class="node">
<title>E</title>
<image xlink:href="icon_router.png" width="54px" height="36px" preserveAspectRatio="xMinYMin meet" x="216" y="-36"/>
<text text-anchor="middle" x="243" y="-14.3" font-family="Times,serif" font-size="14.00">E</text>
</g>
<!-- F&#45;&#45;E -->
<g id="edge3" class="edge">
<title>F&#45;&#45;E</title>
<path fill="none" stroke="red" d="M54.36,-80.88C95.91,-67.03 174.45,-40.85 215.87,-27.04"/>
<text text-anchor="middle" x="128.61" y="-59.96" font-family="Times,serif" font-size="20.00">1</text>
</g>
<!-- C -->
<g id="node6" class="node">
<title>C</title>
<image xlink:href="icon_router.png" width="54px" height="36px" preserveAspectRatio="xMinYMin meet" x="360" y="-252"/>
<text text-anchor="middle" x="387" y="-230.3" font-family="Times,serif" font-size="14.00">C</text>
</g>
<!-- E&#45;&#45;C -->
<g id="edge4" class="edge">
<title>E&#45;&#45;C</title>
<path fill="none" stroke="red" d="M255.03,-36.04C282.14,-76.7 347.73,-175.1 374.9,-215.85"/>
<text text-anchor="middle" x="308.47" y="-131.95" font-family="Times,serif" font-size="20.00">3</text>
</g>
<!-- A -->
<g id="node7" class="node">
<title>A</title>
<image xlink:href="icon_router.png" width="54px" height="36px" preserveAspectRatio="xMinYMin meet" x="576" y="-324"/>
<text text-anchor="middle" x="603" y="-302.3" font-family="Times,serif" font-size="14.00">A</text>
</g>
<!-- C&#45;&#45;A -->
<g id="edge5" class="edge">
<title>C&#45;&#45;A</title>
<path fill="none" stroke="red" d="M414.36,-243.12C455.91,-256.97 534.45,-283.15 575.87,-296.96"/>
<text text-anchor="middle" x="488.61" y="-276.04" font-family="Times,serif" font-size="20.00">4</text>
</g>
<!-- B -->
<g id="node8" class="node">
<title>B</title>
<image xlink:href="icon_router.png" width="54px" height="36px" preserveAspectRatio="xMinYMin meet" x="360" y="-540"/>
<text text-anchor="middle" x="387" y="-518.3" font-family="Times,serif" font-size="14.00">B</text>
</g>
<!-- A&#45;&#45;B -->
<g id="edge6" class="edge">
<title>A&#45;&#45;B</title>
<path fill="none" stroke="red" d="M584.96,-324.04C544.3,-364.7 445.9,-463.1 405.15,-503.85"/>
<text text-anchor="middle" x="488.55" y="-419.95" font-family="Times,serif" font-size="20.00">1</text>
</g>
<!-- B&#45;&#45;H -->
<g id="edge7" class="edge">
<title>B&#45;&#45;H</title>
<path fill="none" stroke="red" d="M359.64,-522C318.09,-522 239.55,-522 198.13,-522"/>
<text text-anchor="middle" x="272.39" y="-528" font-family="Times,serif" font-size="20.00">2</text>
</g>
<!-- B&#45;&#45;G -->
<g id="edge8" class="edge">
<title>B&#45;&#45;G</title>
<path fill="none" stroke="red" d="M359.94,-511.18C293.23,-484.49 121.42,-415.77 54.37,-388.95"/>
<text text-anchor="middle" x="200.66" y="-456.06" font-family="Times,serif" font-size="20.00">4</text>
</g>
<!-- B&#45;&#45;C -->
<g id="edge10" class="edge">
<title>B&#45;&#45;C</title>
<path fill="none" stroke="red" d="M387,-503.98C387,-452.26 387,-303.72 387,-252.01"/>
<text text-anchor="middle" x="380.5" y="-384" font-family="Times,serif" font-size="20.00">2</text>
</g>
<!-- D -->
<g id="node9" class="node">
<title>D</title>
<image xlink:href="icon_router.png" width="54px" height="36px" preserveAspectRatio="xMinYMin meet" x="144" y="-252"/>
<text text-anchor="middle" x="171" y="-230.3" font-family="Times,serif" font-size="14.00">D</text>
</g>
<!-- B&#45;&#45;D -->
<g id="edge9" class="edge">
<title>B&#45;&#45;D</title>
<path fill="none" stroke="red" d="M373.49,-503.98C334.7,-452.26 223.29,-303.72 184.51,-252.01"/>
<text text-anchor="middle" x="272.5" y="-384" font-family="Times,serif" font-size="20.00">9</text>
</g>
<!-- D&#45;&#45;G -->
<g id="edge12" class="edge">
<title>D&#45;&#45;G</title>
<path fill="none" stroke="red" d="M152.76,-252.24C125.06,-279.94 72.7,-332.3 45.09,-359.91"/>
<text text-anchor="middle" x="92.43" y="-312.07" font-family="Times,serif" font-size="20.00">1</text>
</g>
<!-- D&#45;&#45;F -->
<g id="edge14" class="edge">
<title>D&#45;&#45;F</title>
<path fill="none" stroke="red" d="M152.76,-215.76C125.06,-188.06 72.7,-135.7 45.09,-108.09"/>
<text text-anchor="middle" x="92.43" y="-167.93" font-family="Times,serif" font-size="20.00">3</text>
</g>
<!-- D&#45;&#45;E -->
<g id="edge13" class="edge">
<title>D&#45;&#45;E</title>
<path fill="none" stroke="red" d="M177.01,-215.96C190.57,-175.3 223.37,-76.9 236.95,-36.15"/>
<text text-anchor="middle" x="200.48" y="-132.05" font-family="Times,serif" font-size="20.00">1</text>
</g>
<!-- D&#45;&#45;C -->
<g id="edge11" class="edge">
<title>D&#45;&#45;C</title>
<path fill="none" stroke="red" d="M198.36,-234C239.91,-234 318.45,-234 359.87,-234"/>
<text text-anchor="middle" x="272.61" y="-240" font-family="Times,serif" font-size="20.00">1</text>
</g>
</g>
</svg>
